<svg width="9836" height="6366" viewBox="0 0 9836 6366" fill="none" xmlns="http://www.w3.org/2000/svg">
<path d="M4339.45 5273.27L3984.18 5182.13C3937.99 5170.29 3889.1 5174.77 3845.83 5194.83L3700.38 5262.24C3653.39 5284.03 3616.29 5322.64 3596.41 5370.48L3561.69 5453.97C3538.51 5509.73 3579.51 5571.12 3639.87 5571.12H3868.33C3879.35 5571.12 3890.29 5569.16 3900.63 5565.3L4018.67 5521.38C4038.04 5515.9 4058.66 5516.78 4077.47 5523.94L4130.42 5544.08C4156.81 5554.11 4184.97 5558.65 4213.18 5557.37L4339.42 5551.72V5273.27H4339.45Z" fill="#FDBD91"/>
<g opacity="0.55">
<g opacity="0.55">
<g opacity="0.55">
<g opacity="0.55">
<g opacity="0.55">
<g opacity="0.55">
<path opacity="0.55" d="M4339.42 5273.29V5344L3997.67 5256.45C3951.54 5244.57 3902.56 5249.03 3859.38 5269.12L3713.93 5336.44C3666.83 5358.29 3629.73 5396.9 3609.9 5444.79L3575.22 5528.17C3573.99 5531.12 3572.92 5534.11 3572.12 5537.06C3555.13 5514.39 3549.45 5483.37 3561.72 5453.94L3596.41 5370.42C3616.24 5322.67 3653.34 5284.06 3700.44 5262.21L3845.89 5194.74C3889.07 5174.77 3938.04 5170.31 3984.18 5182.07L4339.42 5273.29Z" fill="white"/>
</g>
</g>
</g>
</g>
</g>
</g>
<path d="M3868.36 5612.71H3639.9C3597.63 5612.71 3558.37 5591.72 3534.9 5556.55C3511.44 5521.38 3507.12 5477.09 3523.34 5438.03L3558.06 5354.54C3582 5296.96 3626.35 5250.79 3682.94 5224.54L3828.36 5157.13C3880.18 5133.13 3939.18 5127.7 3994.52 5141.88L4349.79 5233.01C4368.17 5237.73 4381.04 5254.29 4381.04 5273.26V5551.75C4381.04 5573.96 4363.54 5592.29 4341.32 5593.28L4215.08 5598.93C4181.07 5600.47 4147.58 5595.1 4115.68 5582.97L4062.75 5562.83C4052.81 5559.02 4041.73 5558.4 4031.42 5561.04L3915.17 5604.27C3900.15 5609.87 3884.38 5612.71 3868.36 5612.71ZM4339.45 5551.75H4339.59H4339.45ZM3932.9 5217.24C3909.01 5217.24 3885.2 5222.39 3863.33 5232.56L3717.91 5299.97C3680.27 5317.41 3650.75 5348.15 3634.84 5386.44L3600.13 5469.93C3594.5 5483.46 3595.95 5498.2 3604.08 5510.39C3612.2 5522.57 3625.27 5529.56 3639.93 5529.56H3868.39C3874.49 5529.56 3880.49 5528.48 3886.2 5526.35L4004.23 5482.43C4005.29 5482.06 4006.34 5481.69 4007.39 5481.41C4035.17 5473.54 4065.34 5474.85 4092.33 5485.1L4145.28 5505.24C4166.5 5513.31 4188.8 5516.95 4211.39 5515.87L4297.95 5512.01V5305.51L3973.92 5222.39C3960.4 5218.95 3946.65 5217.24 3932.9 5217.24Z" fill="black"/>
<path d="M4969.85 2594.67V3256.07C4969.85 3570.66 5222.35 3826.3 5535.6 3831.56V4068.51C5526.4 4279.95 5660.85 4354.41 5833.09 4335.6C6019.79 4315.46 6251.23 4185.75 6392.13 4002.72V2968.04L5943.49 2836.08C5943.49 2836.08 5831.64 2740.18 5860.33 2409.93C5860.33 2409.93 5135.39 2503.34 4986.7 2428.48C4975.76 2479.42 4970.65 2535.21 4969.85 2594.67Z" fill="#FDBD91"/>
<g opacity="0.55">
<g opacity="0.55">
<g opacity="0.55">
<g opacity="0.55">
<g opacity="0.55">
<g opacity="0.55">
<path opacity="0.55" d="M4969.85 2594.67V3256.07C4969.85 3570.66 5222.35 3826.3 5535.6 3831.56V4068.51C5526.51 4277.85 5658.1 4352.85 5827.81 4336.12C5701.9 4322.02 5614.12 4240.72 5621.62 4068.51V3831.56C5308.34 3826.3 5055.87 3570.66 5055.87 3256.07V2594.67C5056.53 2543.22 5060.48 2494.53 5068.63 2449.42C5033.77 2444.82 5005.48 2437.97 4986.67 2428.51C4975.76 2479.42 4970.65 2535.21 4969.85 2594.67Z" fill="white"/>
</g>
</g>
</g>
</g>
</g>
</g>
<g opacity="0.3">
<g opacity="0.3">
<g opacity="0.3">
<g opacity="0.3">
<g opacity="0.3">
<g opacity="0.3">
<path opacity="0.3" d="M6080.58 3710V4046.55C6064.67 4175.24 5964.54 4262.99 5833.09 4335.6C6019.79 4315.46 6251.23 4185.75 6392.13 4002.72V3107.63L6034.14 3123.94C6036.24 3431.29 6008.88 3712.47 5765.85 3801.02L5792.15 3831.67L5957.55 3792.21L6080.58 3710Z" fill="black"/>
</g>
</g>
</g>
</g>
</g>
</g>
<path d="M6392.11 3489.6V2968.06L5943.46 2836.16C5943.46 2836.16 5831.61 2740.22 5860.36 2409.95C5860.36 2409.95 5135.33 2503.39 4986.7 2428.47C4975.79 2479.41 4970.68 2535.2 4969.85 2594.69V2595.06C4062.02 2232 4807.33 1036.85 5714.49 1584.27L6392.16 1762.59C6508.38 1331.86 6791.78 1504.61 6568.46 1844.97C7123.67 1850.77 7410.51 3077.51 6392.11 3489.6Z" fill="#434343"/>
<path d="M5961.16 2841.37L5943.46 2836.14C5943.46 2836.14 5842.18 2749.24 5857.15 2456.35C5887.29 2452.8 5904.88 2450.53 5904.88 2450.53C5885.53 2673.17 5930.05 2789.38 5961.16 2841.37Z" fill="#A3433C"/>
<path d="M5976.38 2853.18L5938.88 2841.48C5934.65 2837.84 5835.17 2748.98 5850.14 2456.01L5850.45 2450.1L5856.33 2449.42C5886.41 2445.87 5903.97 2443.6 5903.97 2443.6L5912.61 2442.49L5911.87 2451.15C5892.44 2674.64 5938.17 2789.32 5967.18 2837.79L5976.38 2853.18ZM5863.89 2462.63C5851.81 2724.13 5933.97 2816.82 5946.47 2829.32C5917.52 2773.1 5881.02 2659.53 5897.18 2458.57C5890.05 2459.48 5878.71 2460.87 5863.89 2462.63Z" fill="black"/>
<path d="M6392.11 2995.59L6436.62 3008.66V3470.71C6422.02 3477.14 6407.19 3483.41 6392.11 3489.58V2995.59Z" fill="#A3433C"/>
<path d="M6385.09 3500.03V2986.21L6443.64 3003.4V3475.32L6439.43 3477.16C6424.78 3483.58 6409.89 3489.92 6394.75 3496.11L6385.09 3500.03ZM6399.12 3004.96V3479.12C6409.41 3474.86 6419.58 3470.51 6429.63 3466.14V3013.91L6399.12 3004.96Z" fill="black"/>
<g opacity="0.55">
<g opacity="0.55">
<g opacity="0.55">
<g opacity="0.55">
<g opacity="0.55">
<g opacity="0.55">
<path opacity="0.55" d="M4830.23 1669.13C4841.14 1771 4784.41 1825.6 4697.51 1824.78C4571.17 2027.56 4565.24 2281.27 4752.59 2469.56C4214.06 2024.46 4876.05 1114.47 5681.22 1564.9C5342.63 1412.44 5029.91 1493.66 4830.23 1669.13Z" fill="white"/>
</g>
</g>
</g>
</g>
</g>
</g>
<path d="M5961.16 2841.37L6392.11 2968.04V2995.59L5987.97 2876.76C5988 2876.76 5976.13 2866.53 5961.16 2841.37Z" fill="#A3433C"/>
<path d="M6399.12 3004.97L5983.43 2882.08C5982.92 2881.62 5970.5 2870.83 5955.13 2844.98L5946.01 2829.64L6399.12 2962.81V3004.97ZM5991.55 2870.49L6385.09 2986.22V2973.3L5977.38 2853.44C5984.22 2862.99 5989.45 2868.44 5991.55 2870.49Z" fill="black"/>
<path d="M5536.99 3796.53C5546.31 3796.05 5559.58 3795.82 5570.94 3795.88C5582.73 3795.68 5594.52 3796.3 5606.31 3796.5L5677.02 3799.31L5818.46 3805.11L5813.75 3805.53C5885.67 3795.73 5956.1 3773.26 6018.77 3735.45C6081.38 3697.73 6135.98 3645.6 6179.24 3584.52C6181.49 3581.37 6185.86 3580.6 6189.04 3582.84C6192.03 3584.95 6192.85 3589.01 6191.06 3592.1C6152.74 3658.1 6101.75 3718.78 6037.86 3764.31C5974.34 3810.22 5899.94 3840.99 5823.18 3857.92C5822.35 3858.12 5821.5 3858.2 5820.68 3858.26L5818.46 3858.35L5677.02 3864.17L5606.31 3866.98C5594.52 3867.15 5582.73 3867.78 5570.94 3867.61C5558.73 3867.58 5548.44 3867.61 5534.18 3866.67C5514.86 3865.39 5500.23 3848.71 5501.51 3829.4C5502.68 3811.44 5517.17 3797.55 5534.72 3796.7L5536.99 3796.53Z" fill="black"/>
<g opacity="0.3">
<g opacity="0.3">
<g opacity="0.3">
<g opacity="0.3">
<g opacity="0.3">
<g opacity="0.3">
<path opacity="0.3" d="M6352.39 2956.36L6392.13 2968.06V3489.61C7115.92 3196.72 7180.37 2492.43 6957.77 2107.33C7000.41 2522.82 6906.18 2644.81 6722.66 2575.46C6690.56 2393.77 6593.46 2358.11 6593.46 2358.11C6593.46 2358.11 6579.37 1910.77 6568.46 1844.98C6557.55 1779.19 6427.16 1794.58 6427.16 1794.58L6482.02 1942.08L6471.76 2425.07C6524.26 2438.88 6563.72 2471.52 6592.01 2505.07C6574.66 2493.48 6556.76 2480.87 6538.46 2467.17L6352.39 2956.36Z" fill="black"/>
</g>
</g>
</g>
</g>
</g>
</g>
<g opacity="0.55">
<g opacity="0.55">
<g opacity="0.55">
<g opacity="0.55">
<g opacity="0.55">
<g opacity="0.55">
<path opacity="0.55" d="M6397.53 1743.79C6418.07 1778.93 6410.54 1807.14 6410.54 1807.14C6453.3 1719.98 6540.68 1535.39 6639.74 1552.23C6639.88 1552.23 6639.88 1552.23 6639.88 1552.23C6641.59 1552.63 6643.18 1552.89 6644.88 1553.29L6634.63 1542.23L6611.08 1516.84C6555.94 1481.19 6457.39 1539.2 6397.53 1743.79Z" fill="white"/>
</g>
</g>
</g>
</g>
</g>
</g>
<path d="M6392.14 2968.07L6028.34 2861.11C6028.74 2861.65 6028.99 2861.91 6028.99 2861.91L6392.14 2968.75V2968.07Z" fill="white"/>
<path d="M6399.15 2978.09L6025.3 2868.12L6022.72 2865.31L6010.05 2848.4L6399.15 2962.8V2978.09Z" fill="black"/>
<g opacity="0.55">
<g opacity="0.55">
<g opacity="0.55">
<g opacity="0.55">
<g opacity="0.55">
<g opacity="0.55">
<path opacity="0.55" d="M5860.33 2409.95C5900.9 2398.5 5940.79 2430.46 5938.29 2472.54C5932.92 2562.56 5939.71 2643.44 5957.55 2716.08L5907.15 2794.48C5907.12 2794.48 5848.43 2483.7 5860.33 2409.95Z" fill="white"/>
</g>
</g>
</g>
</g>
</g>
</g>
<g opacity="0.55">
<g opacity="0.55">
<g opacity="0.55">
<g opacity="0.55">
<g opacity="0.55">
<g opacity="0.55">
<path opacity="0.55" d="M4810.94 2248.38C4962.67 2434.4 5387.8 2429 5835.73 2407.61L5117.46 2454.22C5117.46 2454.22 4836.85 2386.98 4810.94 2248.38Z" fill="white"/>
</g>
</g>
</g>
</g>
</g>
</g>
<path d="M6392.11 3524.67C6385.23 3524.67 6378.39 3522.62 6372.5 3518.68C6362.85 3512.17 6357.05 3501.26 6357.05 3489.59V2994.29L5933.6 2869.78C5928.83 2868.39 5924.42 2865.97 5920.65 2862.76C5915.73 2858.56 5805.59 2760.21 5822.38 2449.99C5668.58 2468.49 5197.83 2519.39 5013.94 2474.68C5008.49 2511.04 5005.54 2550.78 5004.91 2595.16C5004.74 2606.69 4998.92 2617.63 4989.32 2624.02C4979.68 2630.41 4967.55 2631.89 4956.82 2627.6C4697.85 2524.02 4544.25 2344.12 4524.33 2121C4503.91 1892.14 4631.32 1656.44 4848.92 1520.51C5106.16 1359.77 5426.4 1371.17 5728.24 1551.59L6368.02 1719.93C6412.87 1576.53 6483.81 1485.14 6561.05 1473.12C6601.56 1466.84 6639.37 1484.32 6662.3 1519.91C6696.93 1573.66 6703.2 1677.15 6627.52 1814.87C6847.09 1850.1 7032.34 2067.73 7088.9 2366.76C7160.15 2743.28 7023.87 3271.81 6405.29 3522.11C6401.03 3523.82 6396.57 3524.67 6392.11 3524.67ZM5962.43 2805.18L6402.02 2934.41C6416.96 2938.78 6427.19 2952.5 6427.19 2968.04V3436.49C6965.3 3194.85 7084.38 2720.3 7019.95 2379.77C6964.7 2087.7 6778.85 1882.2 6568.04 1879.98C6555.23 1879.84 6543.49 1872.74 6537.47 1861.4C6531.45 1850.1 6532.07 1836.38 6539.09 1825.67C6621.16 1700.59 6629.91 1599.17 6603.29 1557.86C6592.58 1541.27 6580.17 1541.08 6571.79 1542.41C6539.23 1547.47 6471.88 1601.47 6425.94 1771.66C6420.91 1790.3 6401.79 1801.38 6383.16 1796.44L5705.51 1618.12C5702.27 1617.27 5699.18 1615.96 5696.31 1614.23C5416.66 1445.45 5121.33 1432.98 4886.05 1579.94C4690.63 1702.01 4576.06 1911.94 4594.16 2114.72C4610.41 2296.87 4731.43 2447.38 4936.59 2542.49C4939.2 2498.06 4944.43 2458.12 4952.36 2421.04C4954.63 2410.42 4961.7 2401.47 4971.5 2396.78C4981.3 2392.1 4992.72 2392.21 5002.44 2397.1C5116.47 2454.59 5657.13 2400.7 5855.85 2375.11C5866.33 2373.74 5876.93 2377.21 5884.6 2384.57C5892.27 2391.93 5896.16 2402.35 5895.25 2412.92C5872.18 2678.73 5943.74 2782.91 5962.43 2805.18Z" fill="black"/>
<path d="M4807.3 2231.98C4815.26 2253.96 4824.43 2274.93 4838.24 2292.83C4851.73 2310.72 4866.79 2326.94 4884.4 2340.13C4901.73 2353.51 4920.4 2364.87 4939.88 2374.22C4949.66 2378.85 4959.57 2383.11 4969.6 2386.74C4979.26 2390.35 4990.48 2393.85 4998.66 2395.49C5017.86 2399.36 5030.31 2418.05 5026.44 2437.25C5022.58 2456.46 5003.89 2468.9 4984.68 2465.04C4981.53 2464.41 4978.55 2463.36 4975.79 2462L4974.71 2461.43C4961.36 2454.67 4951.59 2448.33 4940.91 2441C4930.48 2433.87 4920.57 2426.2 4910.99 2418.19C4891.9 2402.11 4874.49 2384.16 4859.35 2364.67C4843.95 2345.41 4832.02 2323.48 4822.84 2301.24C4813.27 2278.94 4809.49 2254.96 4807.3 2231.98Z" fill="black"/>
<path d="M5784.29 4373.67C5740.79 4373.67 5700.09 4367.39 5663.72 4354.12C5552.45 4313.53 5494.52 4211.83 5500.58 4067.71V3865.02C5185.56 3841.84 4934.74 3575.6 4934.74 3256.07V2594.67C4935.65 2528.79 4941.42 2472.17 4952.38 2421.12C4954.66 2410.5 4961.73 2401.52 4971.53 2396.84C4981.33 2392.15 4992.75 2392.26 5002.47 2397.15C5116.53 2454.65 5657.19 2400.76 5855.88 2375.16C5866.36 2373.8 5887.36 2370.64 5895 2378C5902.67 2385.36 5912.41 2397.93 5911.5 2408.5C5888.38 2674.23 5943.71 2782.87 5962.41 2805.17L6401.99 2934.4C6416.94 2938.78 6427.16 2952.5 6427.16 2968.04V4002.69C6427.16 4010.42 6424.6 4017.94 6419.89 4024.08C6259.64 4232.23 5990.7 4373.67 5784.29 4373.67ZM5013.94 2474.67C5008.49 2511.04 5005.54 2550.78 5004.91 2595.15V3256.07C5004.91 3549.15 5243.26 3791.56 5536.26 3796.45C5555.4 3796.76 5570.74 3812.38 5570.74 3831.5V4068.48C5570.74 4068.99 5570.74 4069.5 5570.71 4070.02C5565.71 4184.64 5605.09 4258.08 5687.78 4288.25C5865.11 4352.96 6181.26 4211.57 6357.05 3990.64V2994.31L5933.6 2869.8C5928.83 2868.41 5924.42 2866 5920.65 2862.79C5915.73 2858.58 5805.59 2760.23 5822.38 2450.02C5668.55 2468.48 5197.83 2519.42 5013.94 2474.67Z" fill="black"/>
<path d="M5535.6 3864.48C5517.45 3864.48 5502.71 3849.74 5502.71 3831.59C5502.71 3813.43 5517.45 3798.38 5535.6 3798.38C5553.75 3798.38 5568.5 3812.78 5568.5 3830.93V3831.59C5568.5 3849.74 5553.78 3864.48 5535.6 3864.48Z" fill="black"/>
<path d="M5714.4 1584.2C5961.5 1584.2 6161.74 1784.44 6161.74 2031.54V3077.52H6481.99V2031.54C6481.99 2004.58 6479.63 1978.24 6475.03 1952.59C6437.79 1743.14 6254.78 1584.2 6034.65 1584.2H5714.4Z" fill="#FC6804"/>
<g opacity="0.3">
<g opacity="0.3">
<g opacity="0.3">
<g opacity="0.3">
<g opacity="0.3">
<g opacity="0.3">
<path opacity="0.3" d="M6185.1 2399.17C6185.1 2399.17 6345.49 2439.97 6486.79 2467.18V2031.54C6486.79 2004.58 6484.43 1978.25 6479.83 1952.6C6432.33 2247.87 6334.18 2396.79 6185.1 2399.17Z" fill="black"/>
</g>
</g>
</g>
</g>
</g>
</g>
<g opacity="0.55">
<g opacity="0.55">
<g opacity="0.55">
<g opacity="0.55">
<g opacity="0.55">
<g opacity="0.55">
<path opacity="0.55" d="M5714.4 1584.2C5961.5 1584.2 6161.74 1784.44 6161.74 2031.54V3077.52H6481.99V3051.47H6229.64V2005.49C6229.64 1811.43 6106.09 1646.15 5933.2 1584.2H5714.4Z" fill="white"/>
</g>
</g>
</g>
</g>
</g>
</g>
<path d="M6481.99 3111.27H6161.74C6143.11 3111.27 6128.02 3096.18 6128.02 3077.55V2031.56C6128.02 1803.5 5942.49 1617.94 5714.4 1617.94C5695.77 1617.94 5680.68 1602.86 5680.68 1584.22C5680.68 1565.58 5695.77 1550.5 5714.4 1550.5H6034.65C6299.92 1550.5 6515.71 1766.29 6515.71 2031.56V3077.55C6515.74 3096.16 6500.62 3111.27 6481.99 3111.27ZM6195.49 3043.8H6448.27V2031.53C6448.27 1803.47 6262.74 1617.91 6034.65 1617.91H5959.88C6100.84 1701.89 6195.46 1855.86 6195.46 2031.53V3043.8H6195.49Z" fill="black"/>
<path d="M6325.03 3281.23C6535.76 3281.23 6706.58 3081.94 6706.58 2836.11C6706.58 2590.27 6535.76 2390.98 6325.03 2390.98C6114.31 2390.98 5943.48 2590.27 5943.48 2836.11C5943.48 3081.94 6114.31 3281.23 6325.03 3281.23Z" fill="#FC6804"/>
<g opacity="0.3">
<g opacity="0.3">
<g opacity="0.3">
<g opacity="0.3">
<g opacity="0.3">
<g opacity="0.3">
<path opacity="0.3" d="M5946.89 2895.57C5971.75 3113.31 6131.63 3281.21 6325.03 3281.21C6535.82 3281.21 6706.58 3081.87 6706.58 2836.11C6706.58 2771.65 6694.88 2710.32 6673.57 2654.92C6675.82 2674.38 6676.98 2694.27 6676.98 2714.38C6676.98 2960.17 6506.19 3159.48 6295.43 3159.48C6140.04 3159.51 6006.24 3051.1 5946.89 2895.57Z" fill="black"/>
</g>
</g>
</g>
</g>
</g>
</g>
<g opacity="0.55">
<g opacity="0.55">
<g opacity="0.55">
<g opacity="0.55">
<g opacity="0.55">
<g opacity="0.55">
<path opacity="0.55" d="M5943.48 2836.11C5943.48 2991.75 6012.03 3128.85 6115.84 3208.31C6045.98 3127.66 6002.69 3015.7 6002.69 2892.01C6002.69 2818.07 6018.08 2748.33 6045.58 2687.02C6143.73 2654.01 6181.89 2596.51 6174.39 2520.32C6234.64 2473.87 6306.74 2446.92 6384.24 2446.92C6461.48 2446.92 6533.44 2473.76 6593.43 2519.81C6524.49 2440.21 6429.75 2391.01 6325.03 2391.01C6114.25 2391.01 5943.48 2590.32 5943.48 2836.11Z" fill="white"/>
</g>
</g>
</g>
</g>
</g>
</g>
<path d="M6325.03 3314.96C6096.04 3314.96 5909.74 3100.14 5909.74 2836.11C5909.74 2572.09 6096.04 2357.26 6325.03 2357.26C6554.03 2357.26 6740.3 2572.06 6740.3 2836.11C6740.3 3100.16 6554.03 3314.96 6325.03 3314.96ZM6325.03 2424.73C6133.25 2424.73 5977.21 2609.27 5977.21 2836.11C5977.21 3062.95 6133.25 3247.49 6325.03 3247.49C6516.82 3247.49 6672.86 3062.95 6672.86 2836.11C6672.86 2609.27 6516.82 2424.73 6325.03 2424.73Z" fill="black"/>
<g opacity="0.3">
<g opacity="0.3">
<g opacity="0.3">
<g opacity="0.3">
<g opacity="0.3">
<g opacity="0.3">
<path opacity="0.3" d="M6487.39 2618.48C6502.53 2627.03 6516.48 2637.57 6529.23 2649.93C6516.48 2637.43 6502.53 2626.92 6487.39 2618.48Z" fill="#6B184E"/>
</g>
</g>
</g>
</g>
</g>
<g opacity="0.3">
<g opacity="0.3">
<g opacity="0.3">
<g opacity="0.3">
<g opacity="0.3">
<path opacity="0.3" d="M6524.34 2654.98C6511.99 2642.99 6498.38 2632.76 6483.95 2624.61L6490.82 2612.37C6506.33 2621 6520.91 2631.97 6534.15 2644.92L6524.34 2654.98Z" fill="black"/>
</g>
</g>
</g>
</g>
</g>
</g>
<g opacity="0.3">
<g opacity="0.3">
<g opacity="0.3">
<g opacity="0.3">
<g opacity="0.3">
<g opacity="0.3">
<path opacity="0.3" d="M6449.38 2602.32C6459.23 2605.36 6468.98 2609.16 6478.18 2613.62C6468.98 2609.02 6459.23 2605.21 6449.38 2602.32Z" fill="#6B184E"/>
</g>
</g>
</g>
</g>
</g>
<g opacity="0.3">
<g opacity="0.3">
<g opacity="0.3">
<g opacity="0.3">
<g opacity="0.3">
<path opacity="0.3" d="M6475.11 2619.93C6466.25 2615.64 6456.9 2611.94 6447.3 2608.99L6451.34 2595.55C6461.68 2598.59 6471.76 2602.54 6481.31 2607.31L6475.11 2619.93Z" fill="black"/>
</g>
</g>
</g>
</g>
</g>
</g>
<path d="M6420.97 3077.59C6522.4 3077.59 6604.63 2969.48 6604.63 2836.12C6604.63 2702.76 6522.4 2594.65 6420.97 2594.65C6319.54 2594.65 6237.31 2702.76 6237.31 2836.12C6237.31 2969.48 6319.54 3077.59 6420.97 3077.59Z" fill="#FFA86C"/>
<g opacity="0.3">
<g opacity="0.3">
<g opacity="0.3">
<g opacity="0.3">
<g opacity="0.3">
<g opacity="0.3">
<path opacity="0.3" d="M6237.28 2836.11C6237.28 2930.31 6278.33 3011.9 6338.07 3051.5C6302.42 3007.55 6280.18 2945.05 6280.18 2875.71C6280.18 2742.31 6362.42 2634.16 6463.86 2634.16C6493.72 2634.16 6521.87 2643.62 6546.87 2660.35C6514.12 2619.55 6469.63 2594.7 6420.97 2594.7C6319.49 2594.67 6237.28 2702.7 6237.28 2836.11Z" fill="black"/>
</g>
</g>
</g>
</g>
</g>
</g>
<g opacity="0.55">
<g opacity="0.55">
<g opacity="0.55">
<g opacity="0.55">
<g opacity="0.55">
<g opacity="0.55">
<path opacity="0.55" d="M6249.5 2922.56C6275.8 3013.21 6342.65 3077.55 6420.94 3077.55C6522.39 3077.55 6604.63 2969.54 6604.63 2836.11C6604.63 2784.27 6592.27 2736.37 6571.08 2697.05C6578.97 2723.9 6583.32 2752.96 6583.32 2783.5C6583.32 2916.9 6501.08 3024.94 6399.63 3024.94C6337.53 3024.91 6282.68 2984.51 6249.5 2922.56Z" fill="white"/>
</g>
</g>
</g>
</g>
</g>
</g>
<path d="M6420.97 3104.54C6304.81 3104.54 6210.32 2984.12 6210.32 2836.11C6210.32 2688.1 6304.81 2567.68 6420.97 2567.68C6537.13 2567.68 6631.61 2688.1 6631.61 2836.11C6631.61 2984.12 6537.13 3104.54 6420.97 3104.54ZM6420.97 2621.63C6334.58 2621.63 6264.3 2717.85 6264.3 2836.11C6264.3 2954.37 6334.58 3050.59 6420.97 3050.59C6507.36 3050.59 6577.64 2954.37 6577.64 2836.11C6577.67 2717.85 6507.39 2621.63 6420.97 2621.63Z" fill="black"/>
<path d="M6417.39 3097.66H6417.27V3045.05L6417.39 3097.66Z" fill="black"/>
<path d="M5261.63 2796.71C5237.18 2790.8 5214.76 2784.92 5193.31 2780.6C5171.84 2776.23 5151.35 2773.78 5131.38 2773.41C5121.33 2772.7 5111.61 2774.21 5101.5 2774.49C5091.81 2776.62 5081.47 2777.08 5071.5 2780.32C5060.99 2782.11 5051.07 2786.28 5040.02 2789.52C5028.86 2792.76 5018.72 2798.44 5005.79 2801.79L5004.97 2802.02C5002.16 2802.76 4999.29 2801.08 4998.58 2798.27C4998.26 2797.02 4998.41 2795.77 4998.92 2794.69C5010.22 2771.14 5027.98 2749.58 5051.98 2735.71C5063.46 2727.73 5076.93 2723.53 5090.28 2718.87C5104.03 2716.03 5118.09 2713.41 5132.15 2714.01C5160.27 2714.3 5187.52 2722.08 5210.87 2734.98C5234.14 2748.16 5254.48 2765.52 5267.97 2789.12C5269.42 2791.65 5268.54 2794.89 5266.01 2796.31C5264.79 2796.99 5263.42 2797.16 5262.17 2796.85L5261.63 2796.71Z" fill="black"/>
<path d="M5761.03 3017.58C5762.08 2936.39 5714.23 2869.95 5654.16 2869.18C5594.09 2868.4 5544.55 2933.59 5543.5 3014.77C5542.45 3095.96 5590.3 3162.4 5650.37 3163.17C5710.44 3163.95 5759.98 3098.76 5761.03 3017.58Z" fill="black"/>
<path d="M5532.53 2780.97C5543.98 2756.17 5564.21 2738.24 5588.16 2725.57C5612.22 2713.22 5641.71 2708.16 5670 2713.07C5677.19 2713.56 5683.95 2716.06 5690.74 2718.13C5697.56 2720.2 5704.26 2722.56 5710.28 2726.11C5716.42 2729.49 5722.53 2732.85 5728.29 2736.54C5733.55 2740.94 5738.83 2745.15 5743.78 2749.69C5746.22 2751.99 5748.86 2754.04 5751.05 2756.51L5757.21 2764.24C5761.22 2769.44 5765.2 2774.58 5768.72 2779.95C5775.08 2791.17 5780.37 2802.87 5784.34 2814.86C5785.25 2817.59 5783.78 2820.54 5781.05 2821.45C5779.68 2821.91 5778.29 2821.76 5777.1 2821.17L5776.47 2820.85C5765 2815.17 5755.45 2808.61 5745.85 2802.67C5740.62 2800.23 5735.85 2797.53 5731.11 2794.92C5726.45 2792.16 5721.87 2789.52 5716.96 2787.76C5712.13 2785.83 5707.61 2783.58 5703.07 2781.51L5689.15 2777.08C5684.74 2775.06 5680 2774.66 5675.48 2773.7C5670.97 2772.67 5666.51 2771.57 5661.88 2771.51C5643.72 2769.46 5625.23 2770.6 5605.09 2773.9C5584.92 2777.11 5563.58 2782.65 5539.21 2788.21L5538.56 2788.36C5535.69 2789.01 5532.82 2787.22 5532.14 2784.32C5531.91 2783.21 5532.05 2782.02 5532.53 2780.97Z" fill="black"/>
<path d="M5666.19 2982.44C5667.71 2957.59 5651.9 2936.4 5630.87 2935.11C5609.83 2933.83 5591.55 2952.93 5590.04 2977.79C5588.52 3002.64 5604.33 3023.83 5625.36 3025.11C5646.4 3026.4 5664.68 3007.29 5666.19 2982.44Z" fill="white"/>
<path d="M5627.27 3029.62C5626.51 3029.62 5625.77 3029.59 5624.97 3029.54C5613.33 3028.83 5602.73 3022.86 5595.17 3012.72C5587.79 3002.83 5584.18 2990.13 5585 2976.92C5586.68 2949.4 5607.08 2927.95 5631.08 2929.6C5654.8 2931.05 5672.73 2954.65 5671.05 2982.18C5669.46 3008.86 5650.03 3029.62 5627.27 3029.62ZM5628.78 2939.45C5611.22 2939.45 5596.2 2956.13 5594.89 2977.55C5594.24 2988.4 5597.16 2998.8 5603.13 3006.78C5608.92 3014.54 5616.88 3019.08 5625.6 3019.62C5643.75 3020.76 5659.83 3003.66 5661.17 2981.58C5662.5 2959.48 5648.72 2940.62 5630.46 2939.48C5629.92 2939.48 5629.35 2939.45 5628.78 2939.45Z" fill="black"/>
<path d="M5256.02 3017.58C5257.07 2936.4 5209.23 2869.96 5149.16 2869.18C5089.09 2868.41 5039.54 2933.59 5038.5 3014.78C5037.45 3095.96 5085.3 3162.4 5145.36 3163.18C5205.43 3163.95 5254.98 3098.77 5256.02 3017.58Z" fill="black"/>
<path d="M5161.14 2982.43C5162.66 2957.58 5146.85 2936.39 5125.81 2935.1C5104.78 2933.82 5086.5 2952.92 5084.98 2977.78C5083.47 3002.63 5099.28 3023.82 5120.31 3025.1C5141.34 3026.39 5159.62 3007.28 5161.14 2982.43Z" fill="white"/>
<path d="M5122.27 3029.62C5121.5 3029.62 5120.76 3029.59 5119.96 3029.54C5108.32 3028.83 5097.72 3022.86 5090.16 3012.72C5082.78 3002.83 5079.17 2990.13 5079.99 2976.92C5081.67 2949.4 5102.12 2927.95 5126.07 2929.6C5149.79 2931.05 5167.75 2954.65 5166.04 2982.18C5164.42 3008.86 5145.02 3029.62 5122.27 3029.62ZM5123.77 2939.45C5106.21 2939.45 5091.19 2956.13 5089.88 2977.55C5089.23 2988.4 5092.15 2998.8 5098.12 3006.78C5103.91 3014.54 5111.87 3019.08 5120.59 3019.62C5138.71 3020.76 5154.82 3003.66 5156.16 2981.58L5161.1 2981.9L5156.16 2981.58C5157.49 2959.51 5143.74 2940.62 5125.45 2939.48C5124.91 2939.48 5124.34 2939.45 5123.77 2939.45Z" fill="black"/>
<path d="M5657.13 3343.79C5657.13 3343.79 5618.33 3392.02 5489.5 3435.46C5462.19 3446.82 5380.72 3469.38 5248.54 3411.17C5248.54 3411.17 5340.61 3530.03 5499.92 3476.34C5499.89 3476.31 5593.33 3454.01 5657.13 3343.79Z" fill="black"/>
<path d="M5419.21 3504.35C5304.56 3504.35 5238.23 3420.77 5237.43 3419.75C5233.51 3414.66 5233.51 3407.59 5237.46 3402.53C5241.41 3397.48 5248.28 3395.74 5254.16 3398.33C5380.44 3453.95 5457.02 3433.75 5484.1 3422.5C5607.16 3381 5645.88 3335.38 5646.25 3334.92C5650.91 3329.3 5659.09 3328.13 5665.11 3332.31C5671.11 3336.46 5672.93 3344.5 5669.26 3350.8C5603.21 3464.92 5507.19 3488.98 5503.16 3489.95C5472.9 3500.17 5444.84 3504.35 5419.21 3504.35ZM5319.73 3451.14C5359.9 3472.99 5419.3 3488.7 5495.43 3463.04C5496.85 3462.67 5539.21 3451.79 5584.97 3411.06C5561.11 3423.27 5531.14 3436.25 5493.98 3448.78C5470.49 3458.55 5411.54 3475.09 5319.73 3451.14Z" fill="black"/>
<g opacity="0.3">
<g opacity="0.3">
<g opacity="0.3">
<g opacity="0.3">
<g opacity="0.3">
<g opacity="0.3">
<path opacity="0.3" d="M5330.52 1689.42H5472.51V1718.03H5407.34V1955.46C5407.34 2078.47 5291.58 2110.51 5231.41 2051.28C5281.97 2048.07 5330.55 2006.51 5330.55 1926.85V1689.42H5330.52Z" fill="black"/>
</g>
</g>
</g>
</g>
</g>
</g>
<g opacity="0.3">
<g opacity="0.3">
<g opacity="0.3">
<g opacity="0.3">
<g opacity="0.3">
<g opacity="0.3">
<path opacity="0.3" d="M5447.59 1521.9L5463.99 1242.53L5486.54 1223.78C5530.12 1092.48 5656.68 997.737 5807.21 957C5964.14 1170.97 5714.35 1507.07 5447.59 1521.9Z" fill="black"/>
</g>
</g>
</g>
</g>
</g>
</g>
<g opacity="0.3">
<g opacity="0.3">
<g opacity="0.3">
<g opacity="0.3">
<g opacity="0.3">
<g opacity="0.3">
<path opacity="0.3" d="M6529.26 1522.5C6456.48 1578.29 6410.54 1657.95 6391.2 1761.24C6317.59 1615.08 6111.6 1589.57 6035.61 1585.05C6287.31 1570.22 6425.26 1435.11 6397.48 1124.9C6397.48 1124.9 6397.59 1124.9 6397.96 1124.78C6449.83 1188.53 6489.86 1269.49 6511.45 1369.72C6520.23 1410.09 6526.05 1453.66 6528.44 1500.42C6528.78 1507.67 6529 1515.03 6529.26 1522.5Z" fill="black"/>
</g>
</g>
</g>
</g>
</g>
</g>
<path d="M7227.53 5134.89C7227.53 5254.92 7178.16 5370.14 7090.04 5452.95C7009.24 5528.94 6902.48 5571.16 6791.44 5571.16H5681.19V5444.15L4213.32 5421.53L4213.38 5175.66L4944.23 5151.31L5087.12 4532.13C5125.19 4364.21 5205.1 4255.58 5325.98 4133.06L5610.2 3830.93C5535.63 4149.7 6246.46 4075.36 6392.11 3768.12L6897.85 4046.92C7070.26 4141.86 7181.65 4318.76 7192.79 4515.26L7226.88 5110.12C7227.36 5118.45 7227.53 5126.6 7227.53 5134.89Z" fill="#B38251"/>
<g opacity="0.55">
<g opacity="0.55">
<g opacity="0.55">
<g opacity="0.55">
<g opacity="0.55">
<g opacity="0.55">
<path opacity="0.55" d="M5627.81 3952.49L5419.67 4173.79C5298.79 4296.32 5218.99 4404.89 5180.93 4572.81L5048.91 5137.85C5036.13 5192.53 4988.49 5231.99 4932.38 5234.38L4293.71 5261.57L4240.36 5441.99L4213.32 5421.53V5175.63L4944.17 5151.37L5087.15 4532.07C5125.22 4364.15 5205.02 4255.58 5325.89 4133.05L5610.2 3830.96C5598.55 3880.85 5606.03 3921.24 5627.81 3952.49Z" fill="white"/>
</g>
</g>
</g>
</g>
</g>
</g>
<g opacity="0.55">
<g opacity="0.55">
<g opacity="0.55">
<g opacity="0.55">
<g opacity="0.55">
<g opacity="0.55">
<path opacity="0.55" d="M5692.33 5299.6L6526.39 5258.04C6526.39 5258.04 6667.72 5258.04 6687.1 5180.46C6706.5 5102.88 6644.91 4895.73 6644.91 4895.73L6641.73 5097.68L6590.11 5166.63L5681.22 5209.58L5692.33 5299.6Z" fill="white"/>
</g>
</g>
</g>
</g>
</g>
</g>
<path d="M6619.2 4548.69C6641.5 4675.9 6658.03 4803.42 6673.63 4930.98L6679.11 4978.84C6680.96 4994.27 6683.34 5012.42 6683.4 5030.04C6683.66 5047.79 6682.41 5065.89 6678.57 5084.27C6674.74 5102.59 6668.57 5121.43 6657.52 5139.49C6646.67 5157.42 6629.65 5174.38 6608.77 5184.29C6598.46 5189.29 6587.52 5192.59 6576.81 5194.49C6571.67 5195.54 6565.54 5195.97 6561.39 5196.39L6549.37 5197.27L6453.21 5204.35C6389.12 5209.26 6325.01 5213.61 6260.86 5217.62C6196.74 5221.99 6132.57 5225.54 6068.42 5229.12C5940.08 5235.94 5811.7 5241.96 5683.12 5244.6L5716.28 5209.58V5571.18L5681.19 5536.13H6573.97L6796.72 5535.98C6865.19 5535.39 6933.19 5516.21 6992.43 5482.07C7051.66 5447.83 7101.77 5398.01 7136.6 5339.14C7171.34 5280.23 7191 5212.39 7192.25 5143.95C7192.82 5126.88 7191.68 5110.15 7190.63 5090.97L7187.45 5035.26L7181.08 4923.85L7168.33 4701.01L7161.97 4589.6C7159.72 4552.61 7158.21 4514.4 7154.41 4480.68C7149.92 4446.02 7141.91 4411.93 7131.2 4378.7C7120.4 4345.46 7105.6 4313.67 7088.64 4283.16C7071.8 4252.53 7051 4224.24 7028.42 4197.68C7005.89 4171 6980.32 4146.94 6952.8 4125.49C6939.33 4114.33 6924.59 4104.95 6910.21 4095.04C6895.1 4086.15 6880.67 4077.23 6863.82 4068.22L6766.1 4014.36L6375.15 3798.89L6423.75 3783.2C6403.07 3826.73 6373.75 3864.34 6340.89 3896.67C6307.9 3929.05 6271.29 3956.49 6232.82 3980.22C6155.58 4027.26 6071.35 4060.33 5983.54 4079.76C5939.59 4089.3 5894.65 4095.38 5848.83 4096.18C5803.09 4096.77 5756.16 4092.48 5709.83 4076.92C5686.76 4069.16 5663.84 4058.08 5643.01 4042.37C5622.05 4027 5603.89 4006.04 5591.25 3982.23C5578.78 3958.28 5572.42 3931.92 5570.66 3906.55C5568.84 3881.04 5571.62 3856.47 5576.34 3833L5635.82 3864.54L5371.57 4136.43C5327.23 4181.63 5284.56 4225.69 5247.46 4274.01C5210.04 4321.91 5179.28 4373.61 5156.18 4428.78C5144.88 4456.48 5135.47 4485 5127.66 4514.12C5120.33 4542.81 5113.34 4574.74 5106.21 4605.22L5063.57 4789.9L4978.32 5159.26C4974.65 5175.09 4960.82 5185.91 4945.31 5186.42L4214.51 5210.77L4248.4 5175.71V5421.56C4248.4 5440.93 4232.69 5456.64 4213.32 5456.64C4193.94 5456.64 4178.23 5440.93 4178.23 5421.56V5175.71C4178.23 5156.76 4193.35 5141.31 4212.13 5140.66L4942.92 5116.34L4909.91 5143.5L4995.14 4774.22L5037.75 4589.57C5045.02 4558.55 5051.47 4528.72 5059.77 4496.22C5068.32 4464.32 5078.71 4432.73 5091.3 4401.96C5116.92 4340.54 5151.5 4282.82 5191.86 4231.14C5231.78 4179.16 5277.29 4132.31 5321.35 4087.37L5585.43 3815.65L5585.57 3815.51C5599.04 3801.64 5621.22 3801.33 5635.09 3814.79C5643.98 3823.43 5647.25 3835.87 5644.94 3847.18C5637.02 3884.48 5638.44 3921.3 5653.3 3949.7C5668.04 3978.03 5696.99 3998.79 5732.38 4010.53C5767.67 4022.49 5807.58 4026.66 5847.61 4026.04C5887.78 4025.36 5928.43 4019.93 5968.43 4011.24C6048.42 3993.6 6126.35 3962.89 6195.98 3920.44C6264.81 3877.86 6327.36 3822.01 6360.23 3753.15L6360.26 3753.06C6368.61 3735.59 6389.55 3728.18 6407.02 3736.53C6407.62 3736.81 6408.27 3737.16 6408.84 3737.47L6799.79 3952.94L6897.51 4006.8C6913.51 4015.33 6930.81 4025.84 6947.71 4035.87C6963.99 4047.03 6980.61 4057.71 6995.86 4070.27C7026.97 4094.53 7055.89 4121.74 7081.37 4151.91C7106.94 4181.94 7130.37 4213.99 7149.47 4248.56C7168.67 4283.02 7185.32 4319.01 7197.56 4356.57C7209.72 4394.12 7218.75 4432.7 7223.78 4471.87C7228.24 4512.1 7229.46 4548.29 7231.79 4585.56L7238.16 4696.98L7250.91 4919.81L7257.27 5031.23L7260.46 5086.94C7261.45 5104.89 7262.81 5125.35 7262.16 5145.46C7260.68 5225.88 7237.64 5305.59 7196.76 5374.8C7155.83 5443.97 7097 5502.49 7027.37 5542.72C6957.77 5582.89 6877.88 5605.36 6797.43 5606.1L6573.78 5606.24H5680.99C5661.62 5606.24 5645.91 5590.53 5645.91 5571.15V5209.55C5645.91 5190.85 5660.63 5175.57 5679.06 5174.52C5807.15 5163.04 5935.42 5154.97 6063.74 5147.7C6127.91 5144.24 6192.08 5140.71 6256.29 5138.04C6320.49 5135 6384.69 5132.31 6448.92 5130.15L6545.28 5126.62L6557.33 5126.2C6561.16 5125.94 6563.12 5126.08 6565.88 5125.66C6571.02 5125.09 6575.71 5123.98 6579.97 5122.25C6588.46 5118.84 6595.82 5112.87 6602.24 5103.78C6615.25 5085.52 6621.5 5057.17 6623.43 5028.7C6624.51 5014.16 6623.72 5000.24 6623.09 4983.65L6621.47 4935.38C6618.32 4806.63 6615.85 4677.8 6619.2 4548.69Z" fill="black"/>
<path d="M5681.22 5292.67L5325.95 5201.54C5279.76 5189.69 5230.87 5194.18 5187.6 5214.23L5042.15 5281.65C4995.17 5303.43 4958.07 5342.04 4938.18 5389.88L4903.47 5473.37C4880.28 5529.14 4921.28 5590.53 4981.64 5590.53H5210.1C5221.12 5590.53 5232.06 5588.57 5242.4 5584.7L5360.44 5540.78C5379.81 5535.3 5400.44 5536.18 5419.24 5543.34L5472.2 5563.48C5498.59 5573.51 5526.74 5578.06 5554.95 5576.78L5681.19 5571.12V5292.67H5681.22Z" fill="#FDBD91"/>
<g opacity="0.55">
<g opacity="0.55">
<g opacity="0.55">
<g opacity="0.55">
<g opacity="0.55">
<g opacity="0.55">
<path opacity="0.55" d="M5681.19 5292.67V5367.64L5349.5 5282.53C5303.45 5270.71 5254.56 5275.23 5211.18 5295.34L5065.87 5362.67C5018.83 5384.46 4981.76 5423.18 4961.79 5470.9L4927.21 5554.54C4925.57 5558.68 4924.06 5562.86 4923.24 5567.01C4899.29 5544.22 4889.15 5507.66 4903.47 5473.4L4938.21 5389.94C4958.15 5342.07 4995.22 5303.49 5042.12 5281.7L5187.6 5214.21C5230.84 5194.26 5279.7 5189.78 5325.92 5201.56L5681.19 5292.67Z" fill="white"/>
</g>
</g>
</g>
</g>
</g>
</g>
<path d="M5210.13 5632.12H4981.67C4939.4 5632.12 4900.14 5611.12 4876.68 5575.95C4853.21 5540.79 4848.89 5496.5 4865.11 5457.44L4899.83 5373.94C4923.78 5316.36 4968.12 5270.17 5024.68 5243.95L5170.13 5176.51C5221.95 5152.5 5280.95 5147.08 5336.29 5161.25L5691.56 5252.39C5709.94 5257.1 5722.81 5273.66 5722.81 5292.64V5571.13C5722.81 5593.34 5705.31 5611.64 5683.1 5612.66L5556.85 5618.31C5522.85 5619.82 5489.35 5614.48 5457.45 5602.35L5404.5 5582.2C5394.53 5578.43 5383.48 5577.8 5373.16 5580.42L5256.92 5623.65C5241.89 5629.28 5226.15 5632.12 5210.13 5632.12ZM5681.22 5571.15H5681.36H5681.22ZM5274.64 5236.65C5250.75 5236.65 5226.95 5241.79 5205.07 5251.93L5059.65 5319.37C5022.01 5336.82 4992.5 5367.52 4976.59 5405.85L4941.87 5489.34C4936.25 5502.86 4937.7 5517.6 4945.82 5529.79C4953.95 5541.98 4967.01 5548.97 4981.67 5548.97H5210.13C5216.24 5548.97 5222.23 5547.89 5227.97 5545.76L5345.98 5501.87C5347 5501.5 5348.05 5501.16 5349.13 5500.84C5376.89 5492.97 5407.05 5494.25 5434.07 5504.54L5486.99 5524.68C5508.22 5532.72 5530.43 5536.3 5553.13 5535.3L5639.66 5531.44V5324.94L5315.64 5241.82C5302.17 5238.35 5288.39 5236.65 5274.64 5236.65Z" fill="black"/>
<path d="M5316.8 5190.35L5439.55 4489.32L5399.38 5199.89C5398.08 5222.85 5378.42 5240.4 5355.47 5239.13C5332.51 5237.82 5314.96 5218.16 5316.23 5195.21C5316.35 5193.62 5316.55 5191.85 5316.8 5190.35Z" fill="black"/>
<g opacity="0.3">
<g opacity="0.3">
<g opacity="0.3">
<g opacity="0.3">
<g opacity="0.3">
<g opacity="0.3">
<path opacity="0.3" d="M7227.53 5134.89C7227.53 5254.92 7178.16 5370.14 7090.04 5452.95C7020.21 5518.63 6930.92 5559.2 6836.15 5568.83C6860.27 5553.69 6883.03 5536.24 6903.99 5516.61C6992.11 5433.66 7041.49 5318.44 7041.49 5198.56C7041.49 5190.23 7041.32 5181.94 7040.83 5173.62L7006.74 4578.92C6995.61 4382.25 6884.22 4205.35 6711.81 4110.58C6632.78 4067.06 6539.46 4056.38 6453.16 4082.6C6121.55 4183.28 5747.55 4051.24 5747.55 4051.24C5987.97 4038.6 6182.82 3990.73 6302.19 3884.82L6300.55 3883.83C6339.78 3850.25 6371.71 3811.5 6392.16 3768.12L6897.91 4046.92C7070.32 4141.86 7181.71 4318.76 7192.84 4515.26L7226.93 5110.12C7227.36 5118.45 7227.53 5126.6 7227.53 5134.89Z" fill="black"/>
</g>
</g>
</g>
</g>
</g>
</g>
<g opacity="0.3">
<g opacity="0.3">
<g opacity="0.3">
<g opacity="0.3">
<g opacity="0.3">
<g opacity="0.3">
<path opacity="0.3" d="M8718.1 6334.68H254.906C114.115 6334.68 0 6220.57 0 6079.78V6077.53C0 5936.74 114.115 5822.63 254.906 5822.63H8718.1C8858.89 5822.63 8973.01 5936.74 8973.01 6077.53V6079.78C8972.98 6220.54 8858.86 6334.68 8718.1 6334.68Z" fill="#451661"/>
</g>
</g>
</g>
</g>
</g>
</g>
<path d="M5282.73 5416.06C5282.73 5459.83 5264.96 5499.61 5236.25 5528.33C5207.5 5557.07 5167.82 5574.82 5123.98 5574.82H4094.69C4006.98 5574.82 3935.91 5503.64 3935.91 5416.03C3935.91 5372.19 3953.68 5332.48 3982.4 5303.66C4011.14 5274.92 4050.82 5257.17 4094.67 5257.17H5123.95C5211.67 5257.17 5282.73 5328.34 5282.73 5416.06Z" fill="#D0D0D0"/>
<path d="M5123.95 5621.55H4094.67C3981.36 5621.55 3889.18 5529.38 3889.18 5416.07C3889.18 5361.25 3910.53 5309.62 3949.31 5270.71C3988.16 5231.85 4039.77 5210.48 4094.67 5210.48H5123.95C5237.26 5210.48 5329.43 5302.7 5329.43 5416.07C5329.43 5470.96 5308.06 5522.57 5269.25 5561.37C5230.45 5600.17 5178.84 5621.55 5123.95 5621.55ZM4094.67 5303.88C4064.72 5303.88 4036.57 5315.54 4015.41 5336.7C3994.27 5357.92 3982.58 5386.12 3982.58 5416.07C3982.58 5477.87 4032.86 5528.15 4094.67 5528.15H5123.95C5153.89 5528.15 5182.04 5516.49 5203.21 5495.32C5224.37 5474.16 5236.03 5446.01 5236.03 5416.07C5236.03 5354.21 5185.75 5303.88 5123.95 5303.88H4094.67Z" fill="black"/>
<path d="M4094.67 5574.84H1854.58C1766.86 5574.84 1695.72 5503.67 1695.72 5416.06C1695.72 5372.21 1713.49 5332.5 1742.31 5303.68C1771.05 5274.94 1810.74 5257.2 1854.58 5257.2H4094.67C4050.82 5257.2 4011.11 5274.97 3982.4 5303.68C3953.66 5332.5 3935.91 5372.21 3935.91 5416.06C3935.88 5503.67 4006.95 5574.84 4094.67 5574.84Z" fill="#D0D0D0"/>
<g opacity="0.55">
<g opacity="0.55">
<g opacity="0.55">
<g opacity="0.55">
<g opacity="0.55">
<g opacity="0.55">
<path opacity="0.55" d="M1959.27 5574.84H1867.9C1780.18 5574.84 1709.04 5503.67 1709.04 5416.06C1709.04 5372.21 1726.81 5332.5 1755.63 5303.68C1784.37 5274.94 1824.05 5257.2 1867.9 5257.2H1959.27C1915.43 5257.2 1875.72 5274.97 1847 5303.68C1818.18 5332.5 1800.41 5372.21 1800.41 5416.06C1800.41 5503.67 1871.58 5574.84 1959.27 5574.84Z" fill="white"/>
</g>
</g>
</g>
</g>
</g>
</g>
<path d="M5123.95 5621.55H4094.67C3981.36 5621.55 3889.18 5529.38 3889.18 5416.07C3889.18 5361.25 3910.53 5309.62 3949.31 5270.71C3988.16 5231.85 4039.77 5210.48 4094.67 5210.48H5123.95C5237.26 5210.48 5329.43 5302.7 5329.43 5416.07C5329.43 5470.96 5308.06 5522.57 5269.25 5561.37C5230.45 5600.17 5178.84 5621.55 5123.95 5621.55ZM4094.67 5303.88C4064.72 5303.88 4036.57 5315.54 4015.41 5336.7C3994.27 5357.92 3982.58 5386.12 3982.58 5416.07C3982.58 5477.87 4032.86 5528.15 4094.67 5528.15H5123.95C5153.89 5528.15 5182.04 5516.49 5203.21 5495.32C5224.37 5474.16 5236.03 5446.01 5236.03 5416.07C5236.03 5354.21 5185.75 5303.88 5123.95 5303.88H4094.67Z" fill="black"/>
<path d="M4094.67 5621.55H1854.58C1741.22 5621.55 1649.02 5529.38 1649.02 5416.07C1649.02 5361.17 1670.42 5309.54 1709.3 5270.65C1748.1 5231.85 1799.71 5210.48 1854.61 5210.48H4094.69C4120.5 5210.48 4141.39 5231.37 4141.39 5257.18C4141.39 5282.98 4120.5 5303.88 4094.69 5303.88C4064.75 5303.88 4036.6 5315.54 4015.44 5336.7C3994.3 5357.92 3982.61 5386.12 3982.61 5416.07C3982.61 5477.87 4032.89 5528.15 4094.69 5528.15C4120.5 5528.15 4141.39 5549.04 4141.39 5574.85C4141.37 5600.63 4120.47 5621.55 4094.67 5621.55ZM1854.58 5303.88C1824.64 5303.88 1796.48 5315.54 1775.32 5336.7C1754.08 5357.94 1742.39 5386.12 1742.39 5416.07C1742.39 5477.87 1792.72 5528.15 1854.55 5528.15H3922.49C3901.41 5495.88 3889.16 5457.4 3889.16 5416.07C3889.16 5375.66 3900.77 5337 3922.38 5303.88H1854.58Z" fill="black"/>
<path d="M3872.18 5389.14C3859.91 5392.4 3847.71 5394.11 3835.65 5394.21H1693.82C1689.55 5394.43 1685.28 5394.32 1681.12 5394.11C1618.38 5390.96 1561.94 5348.13 1544.68 5284.16L1047.86 3453.7C1026.35 3374.31 1073.24 3292.49 1152.74 3270.77C1165.73 3267.22 1178.92 3265.49 1191.83 3265.49C1193.86 3265.49 1195.89 3265.49 1197.92 3265.78L3331.31 3265.57C3332.94 3265.46 3334.57 3265.46 3336.19 3265.46C3401.98 3265.46 3462.18 3309.23 3480.14 3375.62L3976.98 5206.1C3998.57 5285.6 3951.68 5367.53 3872.18 5389.14Z" fill="#B8C5D3"/>
<g opacity="0.55">
<g opacity="0.55">
<g opacity="0.55">
<g opacity="0.55">
<g opacity="0.55">
<g opacity="0.55">
<path opacity="0.55" d="M1263.67 3265.81H1248.43C1251.58 3265.59 1254.73 3265.51 1257.77 3265.51C1259.83 3265.49 1261.64 3265.49 1263.67 3265.81Z" fill="white"/>
</g>
</g>
</g>
</g>
</g>
<g opacity="0.55">
<g opacity="0.55">
<g opacity="0.55">
<g opacity="0.55">
<g opacity="0.55">
<path opacity="0.55" d="M1263.7 3312.51H1248.46L1245.47 3219.21C1249.63 3218.95 1253.8 3218.81 1257.8 3218.81C1260.73 3218.81 1265.16 3218.81 1270.64 3219.64L1263.7 3312.51Z" fill="black"/>
</g>
</g>
</g>
</g>
</g>
</g>
<path d="M4888.71 5438.53H5021.85C5028.65 5438.53 5034.15 5433 5034.15 5426.23V5387.13C5034.15 5380.33 5028.63 5374.8 5021.85 5374.8H4888.71C4881.91 5374.8 4876.41 5380.33 4876.41 5387.13V5426.23C4876.41 5433.03 4881.91 5438.53 4888.71 5438.53Z" fill="black"/>
<path d="M4667.86 5438.53H4800.99C4807.8 5438.53 4813.29 5433 4813.29 5426.23V5387.13C4813.29 5380.33 4807.77 5374.8 4800.99 5374.8H4667.86C4661.05 5374.8 4655.55 5380.33 4655.55 5387.13V5426.23C4655.55 5433.03 4661.05 5438.53 4667.86 5438.53Z" fill="black"/>
<g opacity="0.3">
<g opacity="0.3">
<g opacity="0.3">
<g opacity="0.3">
<g opacity="0.3">
<g opacity="0.3">
<path opacity="0.3" d="M5282.73 5397.41C5282.73 5441.18 5264.96 5480.97 5236.24 5509.68C5207.5 5538.42 5167.82 5556.17 5123.98 5556.17H4094.69C4006.98 5556.17 3935.91 5485 3935.91 5397.39C3935.91 5353.54 3953.68 5313.83 3982.4 5285.01C4011.14 5256.27 4050.82 5238.52 4094.67 5238.52H5123.95C5211.67 5238.55 5282.73 5309.7 5282.73 5397.41Z" fill="black"/>
</g>
</g>
</g>
</g>
</g>
</g>
<path d="M8585.11 5857H1070.76C993.152 5857 930.226 5794.07 930.226 5716.47C930.226 5638.86 993.152 5575.94 1070.76 5575.94H8585.11C8662.71 5575.94 8725.64 5638.86 8725.64 5716.47C8725.64 5794.1 8662.71 5857 8585.11 5857Z" fill="#E87552"/>
<g opacity="0.55">
<g opacity="0.55">
<g opacity="0.55">
<g opacity="0.55">
<g opacity="0.55">
<g opacity="0.55">
<path opacity="0.55" d="M8725.66 5716.41C8725.66 5734.21 8722.41 5751.05 8716.38 5766.69C8696.12 5713.96 8644.91 5676.52 8585.05 5676.52H1070.78C1031.95 5676.52 996.833 5692.29 971.321 5717.67C957.551 5731.44 946.583 5748.14 939.458 5766.69C933.427 5751.08 930.171 5734.21 930.171 5716.41C930.171 5677.74 945.943 5642.46 971.321 5617.11C996.833 5591.73 1031.95 5575.96 1070.78 5575.96H8585.05C8662.71 5575.96 8725.66 5638.92 8725.66 5716.41Z" fill="white"/>
</g>
</g>
</g>
</g>
</g>
</g>
<path d="M8585.11 5903.7H1070.78C967.534 5903.7 883.553 5819.71 883.553 5716.47C883.553 5613.22 967.534 5529.24 1070.78 5529.24H8585.14C8688.39 5529.24 8772.37 5613.22 8772.37 5716.47C8772.34 5819.71 8688.36 5903.7 8585.11 5903.7ZM1070.78 5622.64C1019.04 5622.64 976.954 5664.72 976.954 5716.47C976.954 5768.21 1019.04 5810.3 1070.78 5810.3H8585.14C8636.88 5810.3 8678.97 5768.21 8678.97 5716.47C8678.97 5664.72 8636.88 5622.64 8585.14 5622.64H1070.78Z" fill="black"/>
<path d="M6854.38 5297.71C6854.38 5214.91 6921.53 5147.76 7004.33 5147.76H8270.83C8306.8 5147.76 8335.97 5118.6 8335.97 5082.62C8335.97 5046.65 8306.8 5017.48 8270.83 5017.48H6992.38C6837.63 5017.48 6712.17 5142.93 6712.17 5297.69C6712.17 5452.44 6837.63 5577.89 6992.38 5577.89H8270.83C8306.8 5577.89 8335.97 5548.72 8335.97 5512.75C8335.97 5476.78 8306.8 5447.61 8270.83 5447.61H7004.33C6921.53 5447.66 6854.38 5380.52 6854.38 5297.71Z" fill="#FF5722"/>
<path d="M8270.83 5611.27H6992.38C6819.48 5611.27 6678.82 5470.61 6678.82 5297.71C6678.82 5124.81 6819.48 4984.14 6992.38 4984.14H8270.83C8325.14 4984.14 8369.33 5028.34 8369.33 5082.64C8369.33 5136.95 8325.14 5181.14 8270.83 5181.14H7004.36C6940.07 5181.14 6887.77 5233.45 6887.77 5297.73C6887.77 5362.02 6940.07 5414.32 7004.36 5414.32H8270.83C8325.14 5414.32 8369.33 5458.49 8369.33 5512.8C8369.33 5567.08 8325.14 5611.27 8270.83 5611.27ZM6992.38 5050.86C6856.25 5050.86 6745.53 5161.58 6745.53 5297.71C6745.53 5433.83 6856.25 5544.55 6992.38 5544.55H8270.83C8288.36 5544.55 8302.61 5530.3 8302.61 5512.77C8302.61 5495.24 8288.36 5481.01 8270.83 5481.01H7004.36C6903.27 5481.01 6821.05 5398.79 6821.05 5297.71C6821.05 5196.65 6903.27 5114.4 7004.36 5114.4H8270.83C8288.36 5114.4 8302.61 5100.15 8302.61 5082.62C8302.61 5065.08 8288.36 5050.83 8270.83 5050.83H6992.38V5050.86Z" fill="black"/>
<g opacity="0.5">
<g opacity="0.5">
<g opacity="0.5">
<g opacity="0.5">
<g opacity="0.5">
<g opacity="0.5">
<path opacity="0.5" d="M8270.83 5478.91H7004.33C6959.66 5478.91 6918.8 5462.58 6887.18 5435.71C6920.43 5474.83 6969.91 5499.75 7025.18 5499.75H8291.67C8295.57 5499.75 8299.22 5500.55 8302.72 5501.75C8298.1 5488.49 8285.61 5478.91 8270.83 5478.91Z" fill="white"/>
</g>
</g>
</g>
</g>
</g>
</g>
<g opacity="0.5">
<g opacity="0.5">
<g opacity="0.5">
<g opacity="0.5">
<g opacity="0.5">
<g opacity="0.5">
<path opacity="0.5" d="M6764.27 5318.55C6764.27 5181.27 6875.95 5069.59 7013.22 5069.59H8291.67C8295.57 5069.59 8299.22 5070.39 8302.72 5071.59C8298.1 5058.36 8285.64 5048.75 8270.86 5048.75H6992.41C6855.13 5048.75 6743.45 5160.43 6743.45 5297.7C6743.45 5371.63 6775.87 5438.1 6827.22 5483.73C6788.07 5439.75 6764.27 5381.87 6764.27 5318.55Z" fill="white"/>
</g>
</g>
</g>
</g>
</g>
</g>
<path d="M6994.94 5147.75C6917.31 5147.75 6854.38 5214.9 6854.38 5297.7C6854.38 5380.51 6917.31 5447.65 6994.94 5447.65H8249.88V5147.75H6994.94Z" fill="white"/>
<path d="M8249.88 5478.91H6994.94C6900.2 5478.91 6823.14 5397.62 6823.14 5297.71C6823.14 5197.8 6900.2 5116.51 6994.94 5116.51H8249.88C8267.15 5116.51 8281.13 5130.49 8281.13 5147.76V5447.66C8281.13 5464.92 8267.15 5478.91 8249.88 5478.91ZM6994.94 5179.01C6934.68 5179.01 6885.63 5232.25 6885.63 5297.71C6885.63 5363.17 6934.66 5416.41 6994.94 5416.41H8218.63V5179.04H6994.94V5179.01Z" fill="black"/>
<path d="M7258.79 5510.1L7211.42 5472.21C7201.7 5464.44 7187.88 5464.44 7178.17 5472.21L7130.8 5510.1C7120.23 5518.56 7104.57 5511.04 7104.57 5497.51V5304.99C7104.57 5295.36 7112.39 5287.51 7122.05 5287.51H7267.54C7277.17 5287.51 7285.02 5295.33 7285.02 5304.99V5497.51C7285.02 5511.04 7269.35 5518.56 7258.79 5510.1Z" fill="#FFEB3B"/>
<path d="M7120.79 5540.39C7114.49 5540.39 7108.14 5538.98 7102.17 5536.12C7087.19 5528.92 7077.88 5514.13 7077.88 5497.51V5304.99C7077.88 5280.65 7097.68 5260.83 7122.02 5260.83H7267.51C7291.88 5260.83 7311.68 5280.63 7311.68 5304.99V5497.51C7311.68 5514.13 7302.36 5528.92 7287.39 5536.09C7272.4 5543.3 7255.05 5541.32 7242.08 5530.94L7194.74 5493.05L7147.45 5530.94C7139.69 5537.19 7130.29 5540.39 7120.79 5540.39ZM7275.47 5489.26H7275.6H7275.47ZM7194.79 5439.62C7206.53 5439.62 7218.28 5443.55 7228.1 5451.39L7258.31 5475.57V5314.23H7131.25V5475.57L7161.49 5451.39C7171.31 5443.55 7183.05 5439.62 7194.79 5439.62Z" fill="black"/>
<g opacity="0.5">
<g opacity="0.5">
<g opacity="0.5">
<g opacity="0.5">
<g opacity="0.5">
<g opacity="0.5">
<path opacity="0.5" d="M7151.48 5313.57H7130.64V5476.91L7151.48 5460.26V5313.57Z" fill="white"/>
</g>
</g>
</g>
</g>
</g>
</g>
<g opacity="0.5">
<g opacity="0.5">
<g opacity="0.5">
<g opacity="0.5">
<g opacity="0.5">
<g opacity="0.5">
<path opacity="0.5" d="M7248.54 5451.91C7238.85 5444.14 7227.24 5440.27 7215.64 5440.27C7212.14 5440.27 7208.67 5440.75 7205.23 5441.45C7213.21 5443.07 7220.95 5446.49 7227.7 5451.91L7258.97 5476.91V5460.26L7248.54 5451.91Z" fill="white"/>
</g>
</g>
</g>
</g>
</g>
</g>
<path d="M7294.07 5263.46L7825.36 5284.31L7294.07 5305.15C7282.56 5305.6 7272.88 5296.63 7272.42 5285.13C7271.97 5273.63 7280.94 5263.95 7292.44 5263.49C7292.94 5263.44 7293.53 5263.44 7294.07 5263.46Z" fill="black"/>
<g opacity="0.3">
<g opacity="0.3">
<g opacity="0.3">
<g opacity="0.3">
<g opacity="0.3">
<g opacity="0.3">
<path opacity="0.3" d="M8257.65 5228.51L6857.64 5357.11L6894.71 5202.12L6955.5 5145.17H7070.09H8257.65V5228.51Z" fill="black"/>
</g>
</g>
</g>
</g>
</g>
</g>
<path opacity="0.6" d="M3268.97 3265.62L3225.1 3346.79H3217.01L3187.18 3424.61H1155.27C1140.17 3424.61 1128.56 3438.81 1132.45 3453.41C1132.48 3453.51 1132.51 3453.59 1132.53 3453.7L1629.3 5284.21C1646.7 5348.6 1703.88 5391.62 1767.02 5394.23H1712.45C1644.83 5396.72 1581.8 5352.47 1563.28 5284.21L1067.02 3455.57L1066.51 3453.7C1045 3374.26 1091.87 3292.46 1171.31 3270.71C1184.36 3267.24 1197.54 3265.48 1210.46 3265.48C1212.46 3265.48 1214.43 3265.48 1216.54 3265.72H1282.3L3268.97 3265.62Z" fill="white"/>
<path d="M3832.77 5441.07C3744.3 5441.07 3667.37 5382.46 3644.12 5296.38L3147.28 3465.95C3119.05 3361.87 3180.8 3254.09 3284.98 3225.69C3305.16 3220.22 3325.65 3217.29 3345.88 3219.16C3430.85 3223.16 3502.77 3280.93 3525.16 3363.42L4022.03 5193.9C4035.77 5244.26 4029.05 5297.02 4003.08 5342.44C3977.09 5387.88 3934.95 5420.47 3884.43 5434.18C3884.35 5434.21 3884.27 5434.24 3884.17 5434.24C3869.46 5438.13 3854.6 5440.4 3840 5440.91C3837.57 5441.04 3835.17 5441.07 3832.77 5441.07ZM3336.3 3312.18C3327.47 3312.18 3318.45 3313.41 3309.48 3315.84C3255.01 3330.68 3222.67 3387.07 3237.45 3441.5L3734.3 5271.98C3746.79 5318.26 3788.79 5349.29 3836.64 5347.61C3844.24 5347.35 3852.14 5346.12 3860.12 5344.01C3886.46 5336.83 3908.45 5319.81 3922.01 5296.08C3935.59 5272.36 3939.11 5244.79 3931.91 5218.48L3435.04 3387.92C3423.24 3344.5 3385.3 3314.16 3340.62 3312.45C3339.56 3312.4 3338.49 3312.32 3337.42 3312.21L3336.3 3312.18Z" fill="black"/>
<path opacity="0.3" d="M3872.18 5407.85C3860.92 5410.83 3849.55 5412.6 3838.29 5413C3770.67 5415.42 3707.64 5371.26 3689.2 5302.94L3192.33 3472.46C3170.77 3393.04 3217.68 3311.17 3297.23 3289.5C3310.26 3285.98 3323.39 3284.22 3336.27 3284.22C3338.3 3284.22 3340.33 3284.22 3342.39 3284.48C3405.55 3286.91 3462.61 3330.01 3480.09 3394.4L3976.95 5224.88C3998.62 5304.3 3951.6 5386.31 3872.18 5407.85Z" fill="black"/>
<path d="M1688.19 5441.01C1599.78 5441.01 1522.82 5382.41 1499.55 5296.37L1002.73 3465.95C974.553 3361.93 1036.28 3254.17 1140.35 3225.72C1157.19 3221.13 1174.49 3218.78 1191.75 3218.78C1193.91 3218.78 1196.87 3218.78 1200.4 3219.07L3330.11 3218.86C3332.11 3218.78 3334.14 3218.75 3336.17 3218.75C3424.42 3218.75 3502.15 3278.24 3525.21 3363.39L4022.03 5193.82C4050.37 5297.98 3988.64 5405.81 3884.46 5434.15C3884.35 5434.18 3884.25 5434.21 3884.14 5434.23C3867.99 5438.5 3851.82 5440.72 3836.02 5440.85H1694.54C1692.44 5440.99 1690.3 5441.01 1688.19 5441.01ZM3872.18 5389.14H3872.32H3872.18ZM1192.58 3312.21C1182.52 3312.24 1173.66 3313.46 1164.98 3315.84C1110.49 3330.73 1078.15 3387.12 1092.88 3441.5L1589.72 5271.96C1602.24 5318.23 1644.21 5349.32 1692.09 5347.56C1692.65 5347.53 1693.21 5347.53 1693.77 5347.53H3835.65C3843.2 5347.48 3851.56 5346.3 3860.12 5344.04C3914.53 5329.14 3946.72 5272.81 3931.91 5218.37L3435.07 3387.89C3423 3343.32 3382.33 3312.21 3336.19 3312.21H3334.22C3333.55 3312.24 3332 3312.29 3331.34 3312.29L1197.89 3312.5C1196.1 3312.5 1194.31 3312.4 1192.58 3312.21ZM1190.87 3311.97C1190.95 3311.97 1191 3312 1191.08 3312C1191 3312 1190.95 3311.99 1190.87 3311.97Z" fill="black"/>
<g opacity="0.3">
<g opacity="0.3">
<g opacity="0.3">
<g opacity="0.3">
<g opacity="0.3">
<g opacity="0.3">
<path opacity="0.3" d="M8806.53 6365.16H840.723C704.383 6365.16 593.876 6254.65 593.876 6118.31C593.876 5981.97 704.383 5871.46 840.723 5871.46H8806.53C8942.87 5871.46 9053.37 5981.97 9053.37 6118.31C9053.37 6254.65 8942.87 6365.16 8806.53 6365.16Z" fill="black"/>
</g>
</g>
</g>
</g>
</g>
</g>
<g opacity="0.6">
<g opacity="0.6">
<g opacity="0.6">
<g opacity="0.6">
<g opacity="0.6">
<g opacity="0.6">
<g opacity="0.6">
<path opacity="0.6" d="M7265.94 3006.39H7195.49C7184.44 3006.39 7175.47 2997.43 7175.47 2986.38C7175.47 2975.33 7184.44 2966.36 7195.49 2966.36H7265.94C7276.99 2966.36 7285.95 2975.33 7285.95 2986.38C7285.95 2997.43 7276.99 3006.39 7265.94 3006.39Z" fill="#FFFAFA"/>
</g>
</g>
</g>
</g>
</g>
</g>
<g opacity="0.6">
<g opacity="0.6">
<g opacity="0.6">
<g opacity="0.6">
<g opacity="0.6">
<g opacity="0.6">
<path opacity="0.6" d="M7399.77 2879.61H7067.61C7056.56 2879.61 7047.59 2870.64 7047.59 2859.59C7047.59 2848.54 7056.56 2839.58 7067.61 2839.58H7399.77C7410.82 2839.58 7419.78 2848.54 7419.78 2859.59C7419.78 2870.64 7410.82 2879.61 7399.77 2879.61Z" fill="#FFFAFA"/>
</g>
</g>
</g>
</g>
</g>
</g>
</g>
</svg>
