<svg width="856" height="249" viewBox="0 0 856 249" fill="none" xmlns="http://www.w3.org/2000/svg">
<path d="M168.645 161.982C169.856 160.771 171.673 160.031 173.49 160.031H342.269C345.298 160.031 346.913 163.799 344.692 165.886L311.38 199.197C310.169 200.409 308.352 201.149 306.535 201.149H137.688C134.66 201.149 133.045 197.38 135.266 195.294L168.645 161.982Z" fill="url(#paint0_linear_87_1163)"/>
<path d="M168.645 37.4168C169.991 36.2055 171.673 35.4652 173.49 35.4652H342.269C345.298 35.4652 346.913 39.2338 344.692 41.32L311.38 74.6317C310.169 75.843 308.352 76.5833 306.535 76.5833H137.688C134.66 76.5833 133.045 72.8147 135.266 70.7285L168.645 37.4168Z" fill="url(#paint1_linear_87_1163)"/>
<path d="M311.448 99.2621C310.236 98.0508 308.419 97.3105 306.602 97.3105H137.688C134.66 97.3105 133.045 101.079 135.266 103.165L168.577 136.477C169.789 137.688 171.606 138.429 173.423 138.429H342.202C345.23 138.429 346.846 134.66 344.625 132.574L311.448 99.2621Z" fill="url(#paint2_linear_87_1163)"/>
<path d="M69.248 138.429L0 69.0461L32.7733 36.4746L134.391 138.429H69.248Z" fill="url(#paint3_linear_87_1163)"/>
<path d="M32.5713 36.4746L69.2478 0H134.256L65.1427 69.0461L32.5713 36.4746Z" fill="url(#paint4_linear_87_1163)"/>
<path d="M410.979 97.1086L480.362 166.357L447.588 199.063L345.971 97.1086H410.979Z" fill="url(#paint5_linear_87_1163)"/>
<path d="M447.79 198.928L411.114 235.537H345.971L415.219 166.357L447.79 198.928Z" fill="url(#paint6_linear_87_1163)"/>
<path d="M532.045 98.0508H572.692C578.21 98.0508 582.989 102.896 582.989 108.347C582.989 113.865 578.143 118.643 572.692 118.643H523.768C523.095 118.643 522.422 118.643 521.682 119.316L507.213 131.834C505.127 133.92 506.54 137.352 509.299 137.352H570.606C571.279 137.352 571.952 137.352 572.692 137.352C589.247 137.352 602.303 124.296 602.303 107.742C602.303 92.5998 590.593 79.477 575.451 78.1311H531.372C525.854 78.1311 521.076 73.2858 521.076 67.8347C521.076 62.3837 525.921 57.5384 531.372 57.5384H580.297C580.97 57.5384 581.643 57.5384 582.383 56.8654L596.179 44.4829C598.265 42.3967 596.852 38.9646 594.092 38.9646H532.112H531.44C514.885 38.9646 501.829 52.0201 501.829 68.575C501.829 85.1299 514.885 98.1854 531.44 98.1854C531.372 98.0508 532.045 98.0508 532.045 98.0508Z" fill="#9945FF"/>
<path fill-rule="evenodd" clip-rule="evenodd" d="M649.074 39.5702C639.451 40.2432 631.846 47.8476 631.846 56.7981V118.778V119.451C631.846 129.074 639.451 137.352 649.074 138.025H716.572C726.195 137.352 733.8 129.747 733.8 119.451V118.778V56.7981C733.127 47.1747 725.523 39.5702 716.572 39.5702H649.074ZM661.524 56.7308C655.332 56.7308 650.487 61.5761 650.487 67.7674V107.001C650.487 107.001 650.487 107.001 650.487 107.674C650.487 113.865 655.332 118.711 661.524 119.384H703.517C709.708 119.384 714.553 113.865 714.553 107.674C714.553 107.674 714.553 107.674 714.553 107.001V67.7674C714.553 61.5761 709.708 56.7308 703.517 56.7308H661.524Z" fill="#9945FF"/>
<path d="M768.255 36.811C766.169 36.811 764.823 38.157 764.823 40.2432V133.92C764.823 136.006 766.169 137.352 768.255 137.352H843.291C843.964 137.352 845.377 136.679 845.377 136.006L855 125.71C857.087 123.623 855.673 120.191 852.914 120.191H787.502C785.416 120.191 784.07 118.845 784.07 116.759V40.2432C784.07 38.157 782.724 36.811 780.638 36.811H768.255Z" fill="#9945FF"/>
<path d="M649.074 236.143C643.825 236.143 639.518 234.259 636.22 230.49C632.923 226.721 631.24 221.674 631.24 215.348V200.61C631.24 194.217 632.855 189.103 636.153 185.334C639.45 181.566 643.757 179.681 649.074 179.681C652.842 179.681 656.005 180.623 658.563 182.508C661.12 184.392 662.937 187.017 663.879 190.449H664.081L663.677 178.066V162.79H676.06V235.066H664.014V225.241H663.946C662.937 228.673 661.187 231.298 658.63 233.182C656.073 235.201 652.91 236.143 649.074 236.143ZM653.717 225.443C656.88 225.443 659.37 224.501 661.12 222.549C662.869 220.665 663.744 217.906 663.744 214.406V201.351C663.744 197.851 662.869 195.159 661.12 193.208C659.37 191.324 656.88 190.314 653.717 190.314C650.554 190.314 648.064 191.256 646.315 193.073C644.565 194.89 643.623 197.582 643.623 201.014V214.675C643.623 218.108 644.498 220.732 646.315 222.616C648.064 224.501 650.554 225.443 653.717 225.443Z" fill="#9945FF"/>
<path d="M713.544 236.143C708.9 236.143 704.93 235.268 701.498 233.451C698.066 231.701 695.441 229.211 693.557 225.981C691.672 222.751 690.73 219.05 690.73 214.743V201.082C690.73 196.775 691.672 193.073 693.557 189.843C695.441 186.613 698.066 184.123 701.498 182.373C704.93 180.623 708.968 179.681 713.544 179.681C718.12 179.681 722.09 180.556 725.455 182.373C728.82 184.123 731.512 186.613 733.396 189.843C735.28 193.073 736.223 196.775 736.223 201.082V210.907H702.642V214.743C702.642 222.482 706.276 226.318 713.611 226.318C719.264 226.318 722.629 224.433 723.638 220.665H735.819C734.877 225.376 732.387 229.077 728.349 231.903C724.244 234.73 719.331 236.143 713.544 236.143ZM702.642 201.082V203.168L724.244 203.1V201.014C724.244 197.246 723.369 194.352 721.552 192.333C719.802 190.314 717.11 189.305 713.544 189.305C709.91 189.305 707.218 190.314 705.401 192.4C703.517 194.419 702.642 197.313 702.642 201.082Z" fill="#9945FF"/>
<path d="M765.025 235.133L746.317 180.691H759.17L770.14 213.733C770.813 215.685 771.351 217.771 771.89 219.857C772.361 221.943 772.764 223.626 773.034 224.904C773.37 223.626 773.774 221.943 774.245 219.857C774.716 217.771 775.254 215.752 775.86 213.801L786.627 180.623H799.414L780.773 235.066H765.025V235.133Z" fill="#9945FF"/>
<path d="M808.431 248.795V237.624H855.943V248.795H808.431Z" fill="#9945FF"/>
<defs>
<linearGradient id="paint0_linear_87_1163" x1="326.154" y1="15.4734" x2="209.313" y2="239.27" gradientUnits="userSpaceOnUse">
<stop stop-color="#00FFA3"/>
<stop offset="1" stop-color="#DC1FFF"/>
</linearGradient>
<linearGradient id="paint1_linear_87_1163" x1="275.05" y1="-11.2069" x2="158.21" y2="212.59" gradientUnits="userSpaceOnUse">
<stop stop-color="#00FFA3"/>
<stop offset="1" stop-color="#DC1FFF"/>
</linearGradient>
<linearGradient id="paint2_linear_87_1163" x1="300.417" y1="2.03648" x2="183.576" y2="225.833" gradientUnits="userSpaceOnUse">
<stop stop-color="#00FFA3"/>
<stop offset="1" stop-color="#DC1FFF"/>
</linearGradient>
<linearGradient id="paint3_linear_87_1163" x1="16.3079" y1="52.7807" x2="118.176" y2="154.649" gradientUnits="userSpaceOnUse">
<stop stop-color="#00FFA3"/>
<stop offset="1" stop-color="#DC1FFF"/>
</linearGradient>
<linearGradient id="paint4_linear_87_1163" x1="48.8814" y1="52.7809" x2="118.056" y2="-16.3933" gradientUnits="userSpaceOnUse">
<stop stop-color="#00FFA3"/>
<stop offset="1" stop-color="#DC1FFF"/>
</linearGradient>
<linearGradient id="paint5_linear_87_1163" x1="463.971" y1="182.699" x2="362.178" y2="80.9058" gradientUnits="userSpaceOnUse">
<stop stop-color="#00FFA3"/>
<stop offset="1" stop-color="#DC1FFF"/>
</linearGradient>
<linearGradient id="paint6_linear_87_1163" x1="431.473" y1="182.624" x2="362.253" y2="251.843" gradientUnits="userSpaceOnUse">
<stop stop-color="#00FFA3"/>
<stop offset="1" stop-color="#DC1FFF"/>
</linearGradient>
</defs>
</svg>
