<svg width="205" height="34" viewBox="0 0 205 34" fill="none" xmlns="http://www.w3.org/2000/svg">
<path fill-rule="evenodd" clip-rule="evenodd" d="M6.50787 25.9041C6.62888 25.7708 6.77634 25.6642 6.94086 25.5911C7.10537 25.518 7.28332 25.48 7.46335 25.4795H37.1186C37.2449 25.4812 37.368 25.5193 37.4732 25.5891C37.5785 25.6589 37.6614 25.7575 37.7121 25.8732C37.7629 25.9888 37.7792 26.1166 37.7594 26.2413C37.7395 26.366 37.6841 26.4824 37.5999 26.5765L31.2796 33.548C31.1586 33.6813 31.0111 33.7879 30.8466 33.861C30.6821 33.9341 30.5041 33.9721 30.3241 33.9726H0.668827C0.542556 33.9708 0.419462 33.9328 0.31423 33.863C0.208997 33.7932 0.126067 33.6946 0.0753328 33.5789C0.0245987 33.4633 0.00820237 33.3355 0.0280993 33.2108C0.0479963 33.0861 0.103347 32.9697 0.187548 32.8756L6.50787 25.9041ZM37.5999 20.1146C37.6911 20.2079 37.7525 20.3262 37.7764 20.4544C37.8002 20.5827 37.7854 20.7151 37.7338 20.835C37.6823 20.9548 37.5962 21.0566 37.4867 21.1274C37.3772 21.1983 37.2491 21.235 37.1186 21.2329H7.46335C7.28332 21.2324 7.10537 21.1944 6.94086 21.1213C6.77634 21.0481 6.62888 20.9415 6.50787 20.8082L0.187548 13.858C0.0963549 13.7647 0.0349366 13.6464 0.0110906 13.5182C-0.0127553 13.3899 0.0020465 13.2575 0.0536171 13.1377C0.105188 13.0178 0.191201 12.916 0.300737 12.8452C0.410273 12.7743 0.538392 12.7376 0.668827 12.7397H30.3241C30.5041 12.7402 30.6821 12.7782 30.8466 12.8514C31.0111 12.9245 31.1586 13.0311 31.2796 13.1644L37.5999 20.1146ZM6.50787 0.424658C6.62888 0.291356 6.77634 0.184745 6.94086 0.111627C7.10537 0.0385094 7.28332 0.000491591 7.46335 0L37.1186 0C37.2449 0.00177863 37.368 0.0398433 37.4732 0.109653C37.5785 0.179463 37.6614 0.278072 37.7121 0.393716C37.7629 0.509359 37.7792 0.637157 37.7594 0.761862C37.7395 0.886568 37.6841 1.00292 37.5999 1.09703L31.2796 8.0685C31.1586 8.2018 31.0111 8.30841 30.8466 8.38153C30.6821 8.45465 30.5041 8.49266 30.3241 8.49316H0.668827C0.542556 8.49138 0.419462 8.45331 0.31423 8.3835C0.208997 8.31369 0.126067 8.21508 0.0753328 8.09944C0.0245987 7.9838 0.00820237 7.856 0.0280993 7.73129C0.0479963 7.60659 0.103347 7.49024 0.187548 7.39612L6.50787 0.424658Z" fill="url(#paint0_linear)"/>
<path d="M169.45 19.8333H166.794V33.9999H169.45V19.8333Z" fill="black"/>
<path d="M134.477 22.4895V33.9999H137.133V29.1301H146.43V33.9999H149.086V22.4895C149.086 21.785 148.806 21.1094 148.308 20.6112C147.81 20.1131 147.134 19.8333 146.43 19.8333H137.133C136.428 19.8333 135.753 20.1131 135.255 20.6112C134.756 21.1094 134.477 21.785 134.477 22.4895ZM146.43 26.4739H137.133V22.4895H146.43V26.4739Z" fill="black"/>
<path d="M164.58 19.8333H150.413V22.4895H156.168V33.9999H158.825V22.4895H164.58V19.8333Z" fill="black"/>
<path d="M63.7311 22.49V19.8337H51.778C51.1909 19.8337 50.6279 20.067 50.2128 20.4821C49.7977 20.8972 49.5645 21.4602 49.5645 22.0473V34.0004H52.2207V28.2452H63.7311V25.5889H52.2207V22.49H63.7311Z" fill="black"/>
<path d="M113.226 19.8333V31.3437H112.341L106.21 20.7187C106.055 20.4495 105.831 20.2259 105.562 20.0705C105.293 19.9151 104.987 19.8333 104.677 19.8333H102.159C101.689 19.8333 101.238 20.0198 100.906 20.3519C100.574 20.684 100.388 21.1344 100.388 21.6041V33.9999H103.044V22.4895H103.929L110.06 33.1145C110.215 33.3837 110.439 33.6072 110.708 33.7627C110.977 33.9181 111.283 33.9999 111.594 33.9999H114.112C114.581 33.9999 115.032 33.8134 115.364 33.4813C115.696 33.1492 115.882 32.6987 115.882 32.2291V19.8333H113.226Z" fill="black"/>
<path d="M201.679 19.8333V31.3437H200.794L194.663 20.7187C194.508 20.4495 194.284 20.2259 194.015 20.0705C193.746 19.9151 193.441 19.8333 193.13 19.8333H190.612C190.142 19.8333 189.692 20.0198 189.359 20.3519C189.027 20.684 188.841 21.1344 188.841 21.6041V33.9999H191.497V22.4895H192.382L198.513 33.1145C198.669 33.3837 198.892 33.6072 199.161 33.7627C199.43 33.9181 199.736 33.9999 200.047 33.9999H202.565C203.034 33.9999 203.485 33.8134 203.817 33.4813C204.149 33.1492 204.336 32.6987 204.336 32.2291V19.8333H201.679Z" fill="black"/>
<path d="M127.392 19.8333H118.538V33.9999H127.392C128.566 33.9999 129.692 33.5335 130.523 32.7033C131.353 31.873 131.819 30.747 131.819 29.5728V24.2603C131.819 23.0862 131.353 21.9602 130.523 21.1299C129.692 20.2997 128.566 19.8333 127.392 19.8333V19.8333ZM129.163 29.5728C129.163 30.0425 128.977 30.4929 128.644 30.825C128.312 31.1571 127.862 31.3437 127.392 31.3437H121.194V22.4895H127.392C127.862 22.4895 128.312 22.6761 128.644 23.0082C128.977 23.3403 129.163 23.7907 129.163 24.2603V29.5728Z" fill="black"/>
<path d="M94.7204 19.8333V31.3437H85.8662V19.8333H83.21V31.3437C83.21 32.0482 83.4898 32.7238 83.988 33.2219C84.4861 33.7201 85.1617 33.9999 85.8662 33.9999H94.7204C95.4249 33.9999 96.1005 33.7201 96.5986 33.2219C97.0968 32.7238 97.3766 32.0482 97.3766 31.3437V19.8333H94.7204Z" fill="black"/>
<path d="M66.3877 22.4895V31.3437C66.3877 32.0482 66.6676 32.7238 67.1657 33.2219C67.6638 33.7201 68.3395 33.9999 69.0439 33.9999H77.8981C78.6026 33.9999 79.2782 33.7201 79.7764 33.2219C80.2745 32.7238 80.5544 32.0482 80.5544 31.3437V22.4895C80.5544 21.785 80.2745 21.1094 79.7764 20.6112C79.2782 20.1131 78.6026 19.8333 77.8981 19.8333H69.0439C68.3395 19.8333 67.6638 20.1131 67.1657 20.6112C66.6676 21.1094 66.3877 21.785 66.3877 22.4895ZM77.8981 31.3437H69.0439V22.4895H77.8981V31.3437Z" fill="black"/>
<path d="M172.46 22.4895V31.3437C172.46 32.0482 172.74 32.7238 173.238 33.2219C173.736 33.7201 174.412 33.9999 175.116 33.9999H183.97C184.675 33.9999 185.35 33.7201 185.849 33.2219C186.347 32.7238 186.627 32.0482 186.627 31.3437V22.4895C186.627 21.785 186.347 21.1094 185.849 20.6112C185.35 20.1131 184.675 19.8333 183.97 19.8333H175.116C174.412 19.8333 173.736 20.1131 173.238 20.6112C172.74 21.1094 172.46 21.785 172.46 22.4895ZM183.97 31.3437H175.116V22.4895H183.97V31.3437Z" fill="black"/>
<g clip-path="url(#clip0)">
<path d="M62.9281 2.90274V0.0861816H52.2453C51.5037 0.0861816 50.7925 0.380765 50.2682 0.905127C49.7438 1.42949 49.4492 2.14068 49.4492 2.88223V5.7398C49.4492 6.48136 49.7438 7.19255 50.2682 7.71691C50.7925 8.24127 51.5037 8.53585 52.2453 8.53585H60.7136V11.3505H49.6505V14.1671H60.7341C61.4756 14.1671 62.1868 13.8725 62.7112 13.3482C63.2356 12.8238 63.5301 12.1126 63.5301 11.3711V8.51535C63.5301 7.77379 63.2356 7.0626 62.7112 6.53824C62.1868 6.01388 61.4756 5.7193 60.7341 5.7193H52.2658V2.90274H62.9281Z" fill="black"/>
<path d="M65.8379 2.88175V11.3706C65.8379 12.1121 66.1325 12.8233 66.6568 13.3477C67.1812 13.872 67.8924 14.1666 68.6339 14.1666H77.1228C77.8643 14.1666 78.5755 13.872 79.0999 13.3477C79.6242 12.8233 79.9188 12.1121 79.9188 11.3706V2.88175C79.9188 2.14019 79.6242 1.429 79.0999 0.904638C78.5755 0.380277 77.8643 0.0856934 77.1228 0.0856934H68.6339C67.8924 0.0856934 67.1812 0.380277 66.6568 0.904638C66.1325 1.429 65.8379 2.14019 65.8379 2.88175ZM77.1023 11.3501H68.6489V2.90225H77.0967L77.1023 11.3501Z" fill="black"/>
<path d="M95.793 2.88175V14.1666H98.6095V9.54008H106.86V14.1666H109.674V2.88175C109.674 2.14019 109.38 1.429 108.855 0.904638C108.331 0.380277 107.62 0.0856934 106.878 0.0856934H98.589C97.8475 0.0856934 97.1363 0.380277 96.6119 0.904638C96.0876 1.429 95.793 2.14019 95.793 2.88175ZM106.86 6.72352H98.6114V2.90225H106.862L106.86 6.72352Z" fill="black"/>
<path d="M128.771 2.88175V14.1666H131.582V9.54008H139.831V14.1666H142.647V2.88175C142.647 2.14019 142.353 1.429 141.828 0.904638C141.304 0.380277 140.593 0.0856934 139.851 0.0856934H131.568C130.826 0.0856934 130.115 0.380277 129.59 0.904638C129.066 1.429 128.771 2.14019 128.771 2.88175ZM139.835 6.72352H131.582V2.90225H139.831L139.835 6.72352Z" fill="black"/>
<path d="M123.452 0.0856934V11.3501H122.333L118.285 1.25817C118.146 0.912278 117.908 0.615716 117.599 0.406733C117.291 0.197749 116.927 0.0859291 116.555 0.0856934H114.048C113.553 0.0856934 113.079 0.282082 112.73 0.631657C112.38 0.981231 112.184 1.45536 112.184 1.94973V14.1666H114.993V2.90225H116.12L120.158 12.996C120.297 13.3418 120.536 13.6382 120.844 13.8469C121.153 14.0555 121.517 14.1669 121.89 14.1666H124.397C124.891 14.1666 125.365 13.9702 125.715 13.6207C126.064 13.2711 126.261 12.797 126.261 12.3026V0.0856934H123.452Z" fill="black"/>
<path d="M85.2386 11.3501V0.0856934H82.4258V11.3706C82.4258 12.1121 82.7204 12.8233 83.2447 13.3477C83.7691 13.872 84.4803 14.1666 85.2218 14.1666H93.6901V11.3501H85.2386Z" fill="black"/>
</g>
<defs>
<linearGradient id="paint0_linear" x1="4.85878" y1="37.0302" x2="32.9287" y2="-3.05753" gradientUnits="userSpaceOnUse">
<stop offset="0.01" stop-color="#E02D6E"/>
<stop offset="0.48" stop-color="#F5974C"/>
<stop offset="0.74" stop-color="#FFCD3A"/>
<stop offset="1" stop-color="#FFCD3A"/>
</linearGradient>
<clipPath id="clip0">
<rect width="93.2018" height="14.1667" fill="white" transform="translate(49.5645)"/>
</clipPath>
</defs>
</svg>
